# xmcd CD database file
#
# Track frame offsets:
#	150
#	825
#	7500
#	8175
#	15900
#	20700
#	24825
#	31275
#	32025
#	38550
#	45750
#	51000
#	55800
#	56475
#	60675
#	65925
#	72525
#	77175
#	81450
#	87675
#	88725
#	93300
#	95625
#	98250
#	100350
#	104475
#	109500
#	111750
#	114750
#	119400
#	120600
#	124725
#	130875
#	132450
#	136800
#	141675
#	146250
#	151800
#	157350
#	165375
#	170850
#	172125
#	178800
#	184575
#	188925
#	189750
#	192375
#	195225
#	200175
#	205575
#	223127
#
# Disc length: 3059 seconds
#
# Revision: 8
# Processed by: cddbd v1.5.2PL0 Copyright (c) Steve Scherf et al.
# Submitted via: CDex 1.70beta2
#
DISCID=c20bf133
DTITLE=YAMASHITA takeo - Lupin III '71 'me Tracks
DYEAR=1999
DGENRE=Jazz
TTITLE0=Bgm 1
TTITLE1=Bgm 2
TTITLE2=Sub Title
TTITLE3=Lupin Walkin'
TTITLE4=Deep Suspense
TTITLE5=Afro "Lupin '68" Variation
TTITLE6=Bgm 1
TTITLE7=Lupin The Bridge
TTITLE8=Afro "Lupin '68" Instrumental
TTITLE9=Bgm 3
TTITLE10=Scat Theme
TTITLE11=Rythm Suspense
TTITLE12=Lupin The Bridge 2
TTITLE13=Dangerous Higway
TTITLE14=Yeah! Lupin
TTITLE15=Lupin A Go Go
TTITLE16=Afro "Lupin '68"
TTITLE17=Lightning Time
TTITLE18=Bgm 4
TTITLE19=Afro "Lupin '68" Bridge 1
TTITLE20=Violencer's Night
TTITLE21=Bgm 2
TTITLE22=Short Scat 1
TTITLE23=Short Scat 2
TTITLE24=Bgm 3
TTITLE25=Lupin III Title Theme
TTITLE26=Bgm 5
TTITLE27=Afro "Lupin '68" BGM 1
TTITLE28=Afro "Lupin '68" BGM 2
TTITLE29=Afro "Lupin '68" Bridge 2
TTITLE30=Lupin The Dexy
TTITLE31=Bitter Defeat
TTITLE32=Dark Eyes
TTITLE33=Bgm 4
TTITLE34=Bgm 5
TTITLE35=Moody Afternoon
TTITLE36=Cool Lounge
TTITLE37=Cordon 24:00
TTITLE38=Midnight Chaser
TTITLE39=Gallop Samba
TTITLE40=Zenigata Fanfare
TTITLE41=Bgm 1
TTITLE42=Gallop Samba Midium
TTITLE43=Bgm 6
TTITLE44=Lupin The Bridge 3
TTITLE45=Bgm 2
TTITLE46=Tragedy
TTITLE47=Gallop Samba Comical
TTITLE48=Nice Guy Lupin
TTITLE49=Lupin III Sono 2
TTITLE50=Data
EXTD=YEAR: 1999
EXTT0=
EXTT1=
EXTT2=
EXTT3=
EXTT4=
EXTT5=
EXTT6=
EXTT7=
EXTT8=
EXTT9=
EXTT10=
EXTT11=
EXTT12=
EXTT13=
EXTT14=
EXTT15=
EXTT16=
EXTT17=
EXTT18=
EXTT19=
EXTT20=
EXTT21=
EXTT22=
EXTT23=
EXTT24=
EXTT25=
EXTT26=
EXTT27=
EXTT28=
EXTT29=
EXTT30=
EXTT31=
EXTT32=
EXTT33=
EXTT34=
EXTT35=
EXTT36=
EXTT37=
EXTT38=
EXTT39=
EXTT40=
EXTT41=
EXTT42=
EXTT43=
EXTT44=
EXTT45=
EXTT46=
EXTT47=
EXTT48=
EXTT49=
EXTT50=
PLAYORDER=
